<svg xmlns="http://www.w3.org/2000/svg" fill="none" viewBox="0 0 24 24"><path fill="#7A57DD" d="M12 24C18.6274 24 24 18.6274 24 12C24 5.37258 18.6274 0 12 0C5.37258 0 0 5.37258 0 12C0 18.6274 5.37258 24 12 24Z"/><path fill="#fff" fill-opacity=".602" d="M11.9987 4.00002V9.91335L16.9967 12.1467L11.9987 4.00002Z"/><path fill="#fff" d="M11.9986 4.00002L6.99998 12.1467L11.9986 9.91335V4.00002Z"/><path fill="#fff" fill-opacity=".602" d="M11.9987 15.9787V19.9967L17 13.0773L11.9987 15.9787Z"/><path fill="#fff" d="M11.9986 19.9967V15.978L6.99998 13.0773L11.9986 19.9967Z"/><path fill="#fff" fill-opacity=".2" d="M11.9987 15.0486L16.9967 12.1466L11.9987 9.91464V15.0486Z"/><path fill="#fff" fill-opacity=".602" d="M6.99998 12.1466L11.9986 15.0486V9.91464L6.99998 12.1466Z"/></svg>